<?xml version="1.0" encoding="utf-8"?>
<!-- Generator: Adobe Illustrator 22.1.0, SVG Export Plug-In . SVG Version: 6.00 Build 0)  -->
<svg version="1.1" id="Layer_1" xmlns="http://www.w3.org/2000/svg" xmlns:xlink="http://www.w3.org/1999/xlink" x="0px" y="0px"
	 viewBox="0 0 1037 122" style="enable-background:new 0 0 1037 122;" xml:space="preserve">
<style type="text/css">
	.st0{fill:#FFFFFF;}
	.st1{fill:#5BF700;}
</style>
<g>
	<rect x="201.6" y="5.2" width="829.4" height="111.6"/>
	<g>
		<path class="st0" d="M959.6,96.6c-0.6,0-1.1-0.2-1.5-0.6c-0.4-0.4-0.5-0.9-0.5-1.6v-4.9c0-0.6,0.2-1.1,0.5-1.4
			c0.4-0.3,0.8-0.5,1.5-0.5H998c0.7,0,1.3,0.2,1.7,0.5c0.4,0.3,0.6,0.8,0.6,1.4v4.9c0,0.6-0.2,1.1-0.7,1.5c-0.5,0.4-1,0.7-1.6,0.7
			H959.6z"/>
	</g>
	<path d="M19.2,104.6c-0.3,2.4-0.9,4-1.8,5c-1,0.9-2.5,1.4-4.5,1.4c-2.2,0-3.9-0.6-5-1.9c-1.1-1.3-1.7-3.4-1.9-6.3L5,84.3v-1.4
		c0-2.5,0.5-4.3,1.5-5.4c1-1.1,2.6-1.6,4.9-1.6c3.2,0,5.4,2.3,6.8,6.8c0.6,2.3,1.2,4,1.8,5.2c1.9,3.7,4.8,6.6,8.8,8.6
		c4,2,8.8,3,14.3,3c6.8,0,12.4-1.6,16.6-4.8c4.3-3.2,6.4-7.4,6.4-12.4c0-4.2-1.3-7.5-3.9-10.1s-6.4-4.2-11.5-4.9L39,65.7
		C28,64.1,20,61.3,15,57c-5-4.2-7.5-10.2-7.5-17.9c0-8.1,3.3-14.9,10-20.4c6.7-5.5,15-8.2,25-8.2c2.9,0,6,0.4,9.2,1.2
		c3.2,0.8,6.9,2,10.9,3.6c0.1-1.5,0.5-2.6,1.3-3.2c0.7-0.6,2-0.9,3.8-0.9c2.3,0,3.9,0.3,4.8,1c0.9,0.7,1.5,2.3,1.7,4.9l1.1,16.6v0.8
		c0,1.9-0.5,3.3-1.6,4.3c-1.1,1-2.5,1.5-4.4,1.5c-2.8,0-5-2-6.5-5.9c-0.7-2.2-1.5-3.9-2.2-5c-1.7-2.6-4.3-4.7-7.5-6.1
		c-3.3-1.4-7-2.1-11.2-2.1c-6.4,0-11.6,1.6-15.6,4.8c-4,3.2-6,7.3-6,12.5c0,4,1.5,7.2,4.5,9.5c3,2.3,7.5,3.9,13.7,4.8l12.7,1.6
		c9.2,1.2,16.1,4,20.8,8.4c4.7,4.4,7,10.4,7,17.9c0,8.9-3.3,16-9.9,21.4c-6.6,5.4-15.4,8.1-26.5,8.1c-3.8,0-7.6-0.4-11.3-1.3
		C27.4,107.9,23.4,106.5,19.2,104.6z"/>
	<path d="M140.7,99c2.8,0,4.8,0.5,6,1.4s1.9,2.4,1.9,4.4c0,2.3-0.6,3.8-1.8,4.7c-1.2,0.9-3.4,1.4-6.8,1.4H98.6
		c-1.9,0-3.4-0.5-4.4-1.6c-1-1-1.5-2.6-1.5-4.5s0.5-3.4,1.5-4.4s2.5-1.4,4.6-1.4h10.9V22.7h-5.9c-5,0-8.1-0.4-9.3-1.3
		c-1.2-0.9-1.8-2.5-1.8-4.8c0-2,0.5-3.5,1.5-4.5c1-1,2.5-1.6,4.4-1.6h39.2c13.7,0,24.1,2.7,31.3,8c7.1,5.3,10.7,13.1,10.7,23.5
		c0,10.3-3.5,18.1-10.6,23.4c-7.1,5.2-17.5,7.9-31.3,7.9H123V99H140.7z M123,22.7V62h15.8c8.9,0,15.5-1.6,19.9-4.9
		c4.4-3.3,6.6-8.2,6.6-14.8c0-6.5-2.2-11.4-6.6-14.7c-4.4-3.3-11.1-4.9-19.9-4.9H123z"/>
	<path class="st1" d="M261,89.3h2.3c1.7,0,2.9,0.3,3.7,1c0.8,0.7,1.1,1.7,1.1,3.1c0,1.4-0.4,2.5-1.1,3.2c-0.7,0.7-1.8,1.1-3.1,1.1
		h-29.5c-1.4,0-2.4-0.4-3.1-1.1c-0.7-0.7-1.1-1.8-1.1-3.2c0-1.5,0.4-2.5,1.2-3.2c0.8-0.6,2.1-1,4-1h2h3.8V35.4h-3.8
		c-3,0-5-0.3-5.8-0.9c-0.9-0.6-1.3-1.7-1.3-3.4c0-1.4,0.4-2.5,1.1-3.2c0.7-0.7,1.8-1.1,3.1-1.1h53c1.4,0,2.4,0.4,3.1,1.2
		c0.7,0.8,1,2,1,3.6V47c0,1.4-0.3,2.4-1,3.1c-0.7,0.7-1.7,1-3.1,1c-1.7,0-2.8-0.4-3.4-1.3c-0.6-0.9-0.9-2.9-0.9-5.9v-8.6h-32.5v20.2
		h15.8V54c0-2.9,0.3-4.9,0.8-5.9c0.6-1,1.6-1.5,3-1.5c1.3,0,2.2,0.4,2.8,1.1c0.6,0.8,0.9,2,0.9,3.7v15.2c0,2-0.3,3.4-0.8,4.1
		c-0.5,0.8-1.5,1.1-2.8,1.1c-1.4,0-2.4-0.5-3-1.5c-0.6-1-0.8-3-0.8-5.9v-1.7h-15.8v26.5H261z"/>
	<path class="st1" d="M335.3,89.3h19.9c1.6,0,2.7,0.3,3.4,1c0.7,0.7,1.1,1.7,1.1,3.1c0,1.6-0.3,2.8-1,3.4c-0.7,0.6-2,0.9-3.9,0.9
		h-39.1c-1.6,0-2.7-0.4-3.5-1.1c-0.8-0.7-1.2-1.8-1.2-3.2c0-1.4,0.4-2.4,1.2-3.1c0.8-0.7,2.1-1,3.8-1h10.4V50.9h-4.1
		c-3.9,0-6.3-0.3-7.2-0.9c-1-0.6-1.4-1.7-1.4-3.4c0-1.4,0.4-2.4,1.2-3.1c0.8-0.7,2-1,3.6-1H332c1.1,0,1.9,0.2,2.5,0.6
		c0.6,0.4,0.8,1,0.8,1.8v10.2c3.8-4.7,7.7-8.3,11.8-10.6c4.1-2.3,8.5-3.5,13.3-3.5c3.5,0,6.4,0.7,8.6,2.1c2.2,1.4,3.3,3.3,3.3,5.5
		c0,1.5-0.5,2.8-1.6,3.9c-1.1,1.1-2.3,1.7-3.6,1.7c-0.9,0-2.5-0.6-4.6-1.8c-2.2-1.2-4.1-1.8-5.8-1.8c-3.1,0-6.4,1.1-9.8,3.3
		c-3.5,2.2-7.3,5.7-11.5,10.5V89.3z"/>
	<path class="st1" d="M434.6,90.2c-3.3,3-6.8,5.2-10.7,6.8s-7.8,2.3-11.9,2.3c-5.9,0-10.7-1.7-14.4-5c-3.7-3.3-5.5-7.6-5.5-12.9
		c0-6.3,2.4-11.2,7.3-14.7c4.8-3.5,11.7-5.2,20.4-5.2c2.3,0,4.6,0.1,7,0.4c2.4,0.3,4.8,0.8,7.2,1.4v-0.4c0-4.6-1.1-8-3.3-10.2
		c-2.2-2.2-5.6-3.3-10.2-3.3c-3.1,0-6.6,0.8-10.4,2.5c-3.8,1.7-6.4,2.5-7.6,2.5c-1.2,0-2.1-0.5-2.9-1.4c-0.8-0.9-1.1-2.1-1.1-3.6
		c0-2.4,2.2-4.3,6.6-6c4.4-1.6,10-2.5,16.9-2.5c7,0,12.3,1.8,15.9,5.4c3.6,3.6,5.4,8.8,5.4,15.8v27.1h2.9c2.8,0,4.7,0.3,5.7,0.9
		c1,0.6,1.4,1.7,1.4,3.2c0,1.4-0.4,2.5-1.2,3.2c-0.8,0.7-2,1.1-3.6,1.1h-9.4c-1.1,0-2-0.3-2.8-1c-0.7-0.7-1.2-1.7-1.4-2.9
		L434.6,90.2z M434.1,71.3c-2.2-0.7-4.3-1.2-6.4-1.6c-2.1-0.3-4.1-0.5-6.1-0.5c-6.1,0-11,1-14.5,3.1c-3.6,2.1-5.3,4.9-5.3,8.4
		c0,2.7,1.1,4.9,3.3,6.7c2.2,1.8,5,2.6,8.5,2.6c5.1,0,9.8-1.3,14.1-4c4.3-2.7,6.5-5.4,6.5-8.3V71.3z"/>
	<path class="st1" d="M522.7,64.4c0-5.6-0.5-9.4-1.5-11.4c-1-2-2.8-3-5.2-3c-2.9,0-5.3,1.3-7,3.8s-2.6,6.1-2.6,10.5v24.9h1.1
		c2.4,0,4,0.3,4.8,0.9c0.8,0.6,1.2,1.7,1.2,3.3c0,1.4-0.3,2.5-1,3.2c-0.7,0.7-1.7,1.1-3.1,1.1h-7.6c-1.7,0-2.9-0.4-3.5-1.2
		c-0.6-0.8-0.9-2.5-0.9-5.1v-1.7V64.4v-4.7c0-3-0.7-5.4-2-7.1c-1.4-1.7-3.2-2.6-5.6-2.6c-1.8,0-3.4,0.5-4.9,1.6
		c-1.5,1.1-2.8,2.6-3.9,4.7v33h2.2c2.4,0,4,0.3,4.8,0.9c0.8,0.6,1.2,1.7,1.2,3.2c0,1.6-0.3,2.8-1,3.4c-0.7,0.6-2,0.9-3.9,0.9h-15.9
		c-1.6,0-2.7-0.3-3.4-1c-0.7-0.7-1.1-1.8-1.1-3.3c0-1.6,0.5-2.7,1.4-3.3c0.9-0.6,2.7-0.9,5.4-0.9h1.2V50.9h-1.1
		c-2.8,0-4.7-0.3-5.7-1c-1-0.6-1.5-1.7-1.5-3.3c0-1.4,0.4-2.4,1.2-3.1c0.8-0.7,2-1,3.6-1h9.2c1.3,0,2.2,0.2,2.6,0.7s0.7,1.4,0.7,2.9
		c1.6-1.7,3.4-3,5.3-3.9c1.9-0.8,4-1.3,6.4-1.3c2.8,0,5.1,0.6,6.9,1.8c1.8,1.2,3.2,3,4,5.5c1.7-2.5,3.6-4.3,5.8-5.5
		c2.2-1.2,4.7-1.8,7.5-1.8c5.2,0,8.9,1.7,11.3,5c2.4,3.4,3.6,8.8,3.6,16.3v27.1h0.9c2.5,0,4.1,0.3,4.9,0.9c0.8,0.6,1.2,1.7,1.2,3.2
		c0,1.4-0.4,2.5-1.1,3.2c-0.7,0.7-1.8,1.1-3.2,1.1h-7.2c-1.6,0-2.8-0.5-3.5-1.4c-0.8-1-1.1-2.5-1.1-4.5V64.4z"/>
	<path class="st1" d="M560,72.8c0.3,5.8,2.3,10.2,5.8,13.4c3.6,3.1,8.4,4.7,14.6,4.7c4.7,0,9.8-1.2,15.3-3.7c5.5-2.5,8.8-3.7,10-3.7
		c1.2,0,2.2,0.4,3,1.1c0.8,0.8,1.2,1.7,1.2,2.8c0,1.2-0.4,2.2-1.3,3.2c-0.8,1-2.2,1.9-4,2.8c-4,1.9-8.1,3.4-12.4,4.5
		c-4.2,1-8.5,1.5-12.7,1.5c-9.1,0-16.4-2.6-21.8-7.9c-5.5-5.2-8.2-12.2-8.2-20.9c0-8.8,2.9-16,8.7-21.4c5.8-5.5,13.3-8.2,22.6-8.2
		c8.4,0,15.4,2.6,20.9,7.7c5.5,5.1,8.3,11.3,8.3,18.6c0,2.2-0.5,3.7-1.4,4.5c-0.9,0.8-3.5,1.1-7.6,1.1h-0.9H560z M560.3,64.9h39
		c-0.6-4.7-2.6-8.6-6-11.5c-3.4-2.9-7.5-4.3-12.4-4.3c-5.3,0-9.8,1.4-13.4,4.2C563.8,56.1,561.4,60,560.3,64.9z"/>
	<path class="st1" d="M659.5,67.4l-7.7,28.4c-0.4,1.5-1,2.6-1.8,3.2c-0.8,0.6-2,0.9-3.6,0.9c-1.4,0-2.6-0.4-3.4-1.1
		c-0.8-0.8-1.5-2.1-2.2-4.1l-13.7-43.7h-0.5c-1.7,0-2.9-0.3-3.6-1c-0.7-0.7-1.1-1.8-1.1-3.3c0-1.3,0.4-2.4,1.2-3.1
		c0.8-0.7,1.9-1.1,3.4-1.1h16c2.2,0,3.6,0.3,4.4,0.9c0.8,0.6,1.1,1.7,1.1,3.2c0,1-0.2,1.8-0.7,2.5c-0.4,0.7-1,1.1-1.7,1.3
		c-0.7,0.2-1.5,0.3-2.4,0.4c-0.9,0.1-2,0.1-3.3,0.1h-3.5l10.3,36l7.7-26.1c0.4-1.5,1.1-2.6,1.9-3.2c0.8-0.6,2-0.9,3.5-0.9
		c1.4,0,2.6,0.4,3.4,1.2c0.8,0.8,1.5,2.1,2.2,4.1l7.5,24.9l9.9-36h-1.4h-2.6c-2.8,0-4.6-0.3-5.6-0.9c-1-0.6-1.4-1.7-1.4-3.4
		c0-1.6,0.4-2.7,1.1-3.3c0.7-0.6,2.1-0.9,4.2-0.9h16c1.2,0,2.2,0.4,2.8,1.1c0.6,0.7,0.9,1.7,0.9,3.1c0,1.5-0.4,2.6-1.1,3.2
		c-0.7,0.6-2.1,1-4.1,1.1l-13.5,44.9c-0.5,1.5-1.2,2.6-1.9,3.2s-1.9,0.9-3.5,0.9c-1.4,0-2.6-0.4-3.4-1.2c-0.8-0.8-1.5-2.1-2.1-4.1
		L659.5,67.4z"/>
	<path class="st1" d="M771,70.2c0,8.5-2.9,15.5-8.7,20.9c-5.8,5.4-13.4,8.1-22.7,8.1c-9.3,0-16.8-2.7-22.6-8.1
		c-5.8-5.4-8.7-12.4-8.7-20.9c0-8.5,2.9-15.5,8.7-20.9c5.8-5.4,13.4-8.1,22.6-8.1s16.8,2.7,22.7,8.1C768,54.7,771,61.7,771,70.2z
		 M739.5,90.8c6.1,0,11.2-1.9,15.1-5.8c3.9-3.9,5.9-8.8,5.9-14.9s-2-11-5.9-14.9c-3.9-3.9-9-5.9-15.1-5.9c-6.1,0-11.1,2-15.1,5.9
		c-3.9,3.9-5.9,8.9-5.9,14.9c0,6.1,2,11,5.9,14.9C728.4,88.9,733.4,90.8,739.5,90.8z"/>
	<path class="st1" d="M813.4,89.3h19.9c1.6,0,2.7,0.3,3.4,1c0.7,0.7,1.1,1.7,1.1,3.1c0,1.6-0.3,2.8-1,3.4c-0.7,0.6-2,0.9-3.9,0.9
		h-39.1c-1.6,0-2.7-0.4-3.5-1.1c-0.8-0.7-1.2-1.8-1.2-3.2c0-1.4,0.4-2.4,1.2-3.1c0.8-0.7,2.1-1,3.8-1h10.4V50.9h-4.1
		c-3.9,0-6.3-0.3-7.2-0.9c-1-0.6-1.4-1.7-1.4-3.4c0-1.4,0.4-2.4,1.2-3.1c0.8-0.7,2-1,3.6-1h13.6c1.1,0,1.9,0.2,2.5,0.6
		c0.6,0.4,0.8,1,0.8,1.8v10.2c3.8-4.7,7.7-8.3,11.8-10.6c4.1-2.3,8.5-3.5,13.3-3.5c3.5,0,6.4,0.7,8.6,2.1c2.2,1.4,3.3,3.3,3.3,5.5
		c0,1.5-0.6,2.8-1.6,3.9c-1.1,1.1-2.3,1.7-3.6,1.7c-0.9,0-2.5-0.6-4.6-1.8c-2.2-1.2-4.1-1.8-5.8-1.8c-3.1,0-6.4,1.1-9.8,3.3
		c-3.5,2.2-7.3,5.7-11.5,10.5V89.3z"/>
	<path class="st1" d="M888,74.8v17.7c0,1.6-0.3,2.9-1,3.8s-1.5,1.4-2.5,1.4h-11.1c-1.6,0-2.7-0.4-3.5-1.1c-0.8-0.7-1.2-1.8-1.2-3.2
		c0-1.6,0.5-2.7,1.4-3.3c0.9-0.6,2.9-0.9,6-0.9h2.9V28h-2.5c-3.4,0-5.6-0.3-6.6-0.9c-1-0.6-1.5-1.7-1.5-3.4c0-1.4,0.4-2.5,1.2-3.2
		c0.8-0.7,2-1.1,3.6-1.1h11.4c1.1,0,1.9,0.2,2.5,0.7c0.6,0.4,0.9,1,0.9,1.8v42.9l17.3-14.5c-1.3-0.6-2.3-1.2-2.9-1.9
		c-0.6-0.7-0.9-1.5-0.9-2.4c0-1.2,0.4-2.1,1.3-2.7c0.9-0.6,2.2-0.9,3.8-0.9h16.2c1.5,0,2.7,0.3,3.5,1c0.8,0.7,1.2,1.7,1.2,3.1
		c0,2.4-1.9,3.8-5.8,4.2c-0.8,0.1-1.4,0.2-1.8,0.2c-1.6,0.2-3.4,0.8-5.4,1.9c-2,1.1-3.9,2.5-5.9,4.2l-8.7,7.6l22.7,24.7h5.1
		c1.7,0,2.9,0.3,3.7,1c0.7,0.6,1.1,1.7,1.1,3.2c0,1.4-0.4,2.5-1.2,3.2c-0.8,0.7-2,1.1-3.6,1.1h-16.2c-1.8,0-3-0.3-3.8-0.9
		c-0.8-0.6-1.2-1.6-1.2-2.9c0-1.1,0.4-2,1.2-2.8c0.8-0.8,1.9-1.4,3.5-1.9l-17.8-19.4L888,74.8z"/>
</g>
</svg>
